<svg xmlns="http://www.w3.org/2000/svg" width="528" height="128"><g data-name="Grupo 31"><g data-name="Grupo 30"><g data-name="Grupo 29"><path data-name="Rectángulo 11" fill="#7719a7" d="M0 0h528v128H0z"/><text data-name="ADOBE XD" transform="translate(127 91)" fill="#fff" font-size="77" font-family="SegoeUI-Bold, Segoe UI" font-weight="700"><tspan x="0" y="0">ADOBE XD</tspan></text><g data-name="icons8-adobe-xd (8)"><path data-name="Trazado 35" d="M96 16H32c-8.837 0-16 7.461-16 16.667v66.666C16 108.539 23.163 116 32 116h64c8.837 0 16-7.461 16-16.667V32.667C112 23.461 104.837 16 96 16Z" fill="#fff"/><path data-name="Trazado 36" d="M95.837 110.451H32.163a10.871 10.871 0 0 1-10.612-11.114V32.663a10.871 10.871 0 0 1 10.612-11.112h63.674a10.871 10.871 0 0 1 10.614 11.112v66.674a10.871 10.871 0 0 1-10.614 11.114Z" fill="#7819a2"/><path data-name="Trazado 37" d="M64.67 88.052h-6.478a1.391 1.391 0 0 1-1.288-.869L51.07 72.734a16.822 16.822 0 0 1-.727-3.15h-.1a29.448 29.448 0 0 1-.827 3.281l-5.857 14.324a1.39 1.39 0 0 1-1.285.863h-6.492a1.39 1.39 0 0 1-1.249-2l10.192-20.936a1.383 1.383 0 0 0 .019-1.171l-9.337-20.973a1.392 1.392 0 0 1 1.272-1.956h6.733a1.387 1.387 0 0 1 1.3.913l4.8 13.189a29.749 29.749 0 0 1 1.08 3.969h.1q.3-1.357 1.1-4.027c.014-.044.031-.092.047-.133l5.332-13.045a1.381 1.381 0 0 1 1.293-.866h5.917a1.388 1.388 0 0 1 1.26 1.971l-9.592 20.765a1.387 1.387 0 0 0 0 1.169l9.878 21.155a1.39 1.39 0 0 1-1.257 1.976Zm25.793-.619h-4.649a1.388 1.388 0 0 1-1.388-1.388v-2.929h-.094q-2.54 5.083-7.45 5.082a8.367 8.367 0 0 1-7.264-4.149q-2.748-4.151-2.751-11.591 0-7.777 3.031-12.462t7.945-4.68a6.535 6.535 0 0 1 6.489 4.349h.094V42.403a1.388 1.388 0 0 1 1.388-1.387h4.649a1.388 1.388 0 0 1 1.388 1.388v43.641a1.387 1.387 0 0 1-1.388 1.388Zm-5.9-15.249v-2.356a8.9 8.9 0 0 0-1.361-5.082 4.119 4.119 0 0 0-3.547-2.021 4.253 4.253 0 0 0-3.855 2.526 14.517 14.517 0 0 0-1.385 6.936 12.477 12.477 0 0 0 1.341 6.37 4.142 4.142 0 0 0 3.714 2.237 4.208 4.208 0 0 0 3.678-2.359 12.043 12.043 0 0 0 1.417-6.251Z" fill="#fff"/></g></g></g></g></svg>