<svg xmlns="http://www.w3.org/2000/svg" width="264" height="128"><g data-name="Grupo 6"><path data-name="Trazado 38" d="M0 0h264v128H0Z" fill="#de4c36"/><path data-name="Trazado 4" d="M110.189 59.724 68.274 17.811a6.182 6.182 0 0 0-8.743 0l-8.7 8.7 11.038 11.045a7.342 7.342 0 0 1 9.3 9.36l10.638 10.641a7.348 7.348 0 1 1-4.408 4.143l-9.924-9.924V77.9a7.35 7.35 0 0 1 1.945 11.8 7.357 7.357 0 1 1-7.995-12.01V51.324a7.267 7.267 0 0 1-2.408-1.605 7.354 7.354 0 0 1-1.585-8.042L46.551 30.791 17.811 59.53a6.184 6.184 0 0 0 0 8.746l41.915 41.913a6.183 6.183 0 0 0 8.744 0l41.719-41.719a6.187 6.187 0 0 0 0-8.747" fill="#fff"/><text transform="translate(125 91)" fill="#fff" font-size="77" font-family="SegoeUI-Bold, Segoe UI" font-weight="700"><tspan x="0" y="0">GIT</tspan></text></g></svg>