<svg xmlns="http://www.w3.org/2000/svg" width="536" height="128"><g data-name="Grupo 37"><g data-name="Grupo 36"><g data-name="Grupo 35"><path data-name="Trazado 47" d="M0 0h536v128H0Z" fill="#5b00d0"/><path data-name="Trazado 44" d="M64 109.559A45.559 45.559 0 1 0 18.441 64 45.559 45.559 0 0 0 64 109.559Z" fill="#5b00d0"/><path data-name="Trazado 45" d="M64 16a48 48 0 1 0 48 48 48 48 0 0 0-48-48Zm0 4.881A43.119 43.119 0 1 1 20.881 64 43.119 43.119 0 0 1 64 20.881Z" fill="#fff"/><path data-name="Trazado 46" d="M64.546 29.83a34.14 34.14 0 1 1-31.6 21.145A13.289 13.289 0 1 0 51.518 32.4a34.07 34.07 0 0 1 13.028-2.57Z" fill="#fff"/><text data-name="INSOMNIA" transform="translate(122 91)" fill="#fff" font-size="77" font-family="SegoeUI-Bold, Segoe UI" font-weight="700"><tspan x="0" y="0">INSOMNIA</tspan></text></g></g></g></svg>