<svg xmlns="http://www.w3.org/2000/svg" width="584" height="128"><g data-name="Grupo 8"><g data-name="Grupo 5"><g data-name="Grupo 2"><path data-name="Rectángulo 1" fill="#f7df1e" d="M0 0h584v128H0z"/><path data-name="Trazado 1" d="M16 16h96v96H16Z"/><path data-name="Trazado 2" d="m40 95.628 7.458-4.513c1.439 2.551 2.747 4.709 5.887 4.709 3.009 0 4.906-1.177 4.906-5.756V58.93h9.158v31.271c0 9.485-5.56 13.8-13.672 13.8-7.326 0-11.578-3.794-13.737-8.373" fill="#f7df1e"/><path data-name="Trazado 3" d="m72 93.645 7.457-4.317c1.963 3.206 4.514 5.56 9.028 5.56 3.795 0 6.214-1.9 6.214-4.514 0-3.14-2.486-4.252-6.672-6.083l-2.289-.982c-6.607-2.812-10.99-6.345-10.99-13.8 0-6.869 5.233-12.1 13.411-12.1 5.822 0 10.009 2.028 13.017 7.327l-7.13 4.579c-1.57-2.813-3.27-3.925-5.887-3.925-2.682 0-4.383 1.7-4.383 3.925 0 2.747 1.7 3.86 5.626 5.561l2.289.981c7.784 3.337 12.167 6.737 12.167 14.391 0 8.243-6.476 12.756-15.176 12.756-8.5 0-14-4.056-16.68-9.355" fill="#f7df1e"/><text transform="translate(127 91)" font-size="77" font-family="SegoeUI-Bold, Segoe UI" font-weight="700"><tspan x="0" y="0">JAVASCRIPT</tspan></text></g></g></g></svg>