<svg xmlns="http://www.w3.org/2000/svg" width="398" height="128"><g data-name="Grupo 20"><g data-name="Grupo 19"><g data-name="Grupo 18"><path data-name="Rectángulo 8" fill="#00546b" d="M0 0h398v128H0z"/><text transform="translate(122 91)" fill="#fff" font-size="77" font-family="SegoeUI-Bold, Segoe UI" font-weight="700"><tspan x="0" y="0">MYSQL</tspan></text><g data-name="mysql" fill="#fff"><path data-name="Trazado 27" d="M104.426 88.794c-5.223-.13-9.271.392-12.667 1.826-.979.391-2.547.391-2.677 1.63.522.522.588 1.37 1.045 2.087a15.286 15.286 0 0 0 3.4 3.978c1.371 1.043 2.743 2.086 4.178 3 2.547 1.565 5.42 2.478 7.9 4.043 1.437.912 2.872 2.087 4.309 3.065.718.521 1.175 1.37 2.09 1.7v-.2c-.457-.587-.588-1.435-1.045-2.087-.652-.652-1.306-1.239-1.959-1.891a30.961 30.961 0 0 0-6.79-6.586c-2.089-1.435-6.66-3.391-7.509-5.8l-.131-.13a26.581 26.581 0 0 0 4.506-1.048c2.22-.587 4.244-.457 6.529-1.043 1.044-.261 2.089-.587 3.134-.913v-.587c-1.178-1.174-2.027-2.738-3.263-3.848a87.047 87.047 0 0 0-10.773-8.021c-2.024-1.3-4.636-2.152-6.791-3.261-.783-.392-2.089-.587-2.546-1.239a26.291 26.291 0 0 1-2.677-5.021c-1.893-3.587-3.722-7.565-5.354-11.346-1.175-2.543-1.893-5.087-3.33-7.434-6.729-11.086-14.043-17.803-25.273-24.389-2.416-1.37-5.288-1.957-8.356-2.674-1.632-.065-3.265-.2-4.9-.261-1.044-.457-2.089-1.7-3-2.282-3.723-2.348-13.321-7.434-16.064-.717-1.763 4.238 2.612 8.412 4.114 10.564a30.743 30.743 0 0 1 3.33 4.891c.457 1.108.587 2.282 1.045 3.456a78.231 78.231 0 0 0 3.4 8.738 31.508 31.508 0 0 0 2.416 4.043c.522.717 1.436 1.044 1.632 2.217-.914 1.3-.979 3.26-1.5 4.891-2.35 7.368-1.436 16.5 1.894 21.911 1.044 1.63 3.526 5.217 6.856 3.847 2.938-1.174 2.285-4.891 3.134-8.151.2-.783.066-1.3.457-1.826v.131c.914 1.826 1.828 3.587 2.677 5.412a37.261 37.261 0 0 0 8.488 8.738c1.568 1.173 2.808 3.195 4.767 3.912v-.2h-.131a7.2 7.2 0 0 0-1.5-1.3 31.685 31.685 0 0 1-3.4-3.913 83.848 83.848 0 0 1-7.315-11.867c-1.045-2.021-1.959-4.238-2.808-6.26-.392-.783-.392-1.957-1.045-2.347-.979 1.434-2.415 2.674-3.134 4.434-1.24 2.8-1.371 6.26-1.828 9.847-.261.066-.131 0-.261.13-2.089-.522-2.807-2.674-3.591-4.5-1.959-4.63-2.285-12.064-.587-17.411.457-1.37 2.416-5.673 1.632-6.978-.392-1.239-1.7-1.956-2.416-2.934a26.269 26.269 0 0 1-2.35-4.174c-1.567-3.652-2.351-7.695-4.048-11.347a34.712 34.712 0 0 0-3.264-5.02c-1.24-1.761-2.612-3-3.591-5.087-.326-.717-.784-1.891-.261-2.673a1.04 1.04 0 0 1 .914-.848c.849-.718 3.265.2 4.113.587a33.309 33.309 0 0 1 6.464 3.261c.914.652 1.893 1.891 3.068 2.217h1.371c2.089.456 4.44.131 6.4.717a41.749 41.749 0 0 1 9.4 4.5 57.879 57.879 0 0 1 20.371 22.3c.784 1.5 1.11 2.869 1.828 4.434 1.372 3.2 3.069 6.456 4.44 9.586a42.846 42.846 0 0 0 4.636 8.738c.98 1.369 4.9 2.087 6.66 2.8a46.342 46.342 0 0 1 4.505 1.826c2.22 1.369 4.44 2.934 6.529 4.434 1.045.782 4.309 2.413 4.505 3.717Z"/><path data-name="Trazado 28" d="M37.83 32.121a10.358 10.358 0 0 0-2.683.328v.131h.131a21.075 21.075 0 0 0 2.094 2.683c.524 1.047.981 2.094 1.505 3.141l.131-.131a3.691 3.691 0 0 0 1.374-3.274 14.641 14.641 0 0 1-.785-1.374c-.392-.655-1.243-.981-1.767-1.505Z"/></g></g></g></g></svg>