<svg xmlns="http://www.w3.org/2000/svg" width="424" height="128"><g data-name="Grupo 34"><g data-name="Grupo 33"><g data-name="Grupo 32"><path data-name="Rectángulo 10" fill="#539e43" d="M0 0h424v128H0z"/><text transform="translate(114 91)" fill="#fff" font-size="77" font-family="SegoeUI-Bold, Segoe UI" font-weight="700"><tspan x="0" y="0">NODEJS</tspan></text><path data-name="Trazado 21" d="M60 112a8.245 8.245 0 0 1-3.826-.963l-12.116-6.914c-1.822-.963-.911-1.313-.364-1.488a22.513 22.513 0 0 0 5.466-2.363.866.866 0 0 1 .911.088l9.292 5.339a1.2 1.2 0 0 0 1.093 0L96.8 85.482a1 1 0 0 0 .547-.963V44.173a1 1 0 0 0-.547-.963L60.455 23.081a1.2 1.2 0 0 0-1.093 0L23.014 43.21a1.088 1.088 0 0 0-.547.963v40.346a1.088 1.088 0 0 0 .547.963l9.93 5.513c5.375 2.626 8.745-.438 8.745-3.5V47.674a1.086 1.086 0 0 1 1.093-1.05h4.646a1.087 1.087 0 0 1 1.093 1.05v39.821c0 6.914-3.917 10.94-10.749 10.94-2.1 0-3.735 0-8.381-2.188l-9.565-5.252A7.337 7.337 0 0 1 16 84.607V44.261a7.337 7.337 0 0 1 3.826-6.389l36.348-20.217a8.424 8.424 0 0 1 7.652 0l36.348 20.217A7.337 7.337 0 0 1 104 44.261v40.346a7.337 7.337 0 0 1-3.826 6.389l-36.348 20.216A9.648 9.648 0 0 1 60 112Zm11.2-27.744c-15.942 0-19.221-7-19.221-12.953a1.086 1.086 0 0 1 1.093-1.05h4.737a.922.922 0 0 1 1 .875c.729 4.638 2.824 6.914 12.48 6.914 7.652 0 10.932-1.663 10.932-5.6 0-2.275-.911-3.938-12.845-5.076-9.93-.963-16.124-3.063-16.124-10.677 0-7.089 6.195-11.29 16.58-11.29 11.66 0 17.4 3.851 18.128 12.252a1.375 1.375 0 0 1-.273.788 1.142 1.142 0 0 1-.729.35h-4.73a1.058 1.058 0 0 1-1-.788c-1.093-4.813-3.917-6.389-11.387-6.389-8.381 0-9.383 2.8-9.383 4.9 0 2.538 1.184 3.326 12.48 4.726 11.205 1.4 16.489 3.413 16.489 10.94-.091 7.7-6.65 12.077-18.219 12.077Z" fill="#fff"/></g></g></g></svg>