<svg xmlns="http://www.w3.org/2000/svg" width="608" height="128"><g data-name="Grupo 40"><g data-name="Grupo 39"><g data-name="Grupo 38"><path data-name="Trazado 54" d="M0 0h608v128H0Z" fill="#336791"/><path data-name="Trazado 49" d="M103.767 73.506a4.529 4.529 0 0 0-3.706-3.159 8.031 8.031 0 0 0-2.957.173 25.2 25.2 0 0 1-4.557.634 96.015 96.015 0 0 0 9.3-23.418c3.087-12.648 1.438-18.409-.49-21.016-5.098-6.897-12.542-10.603-21.522-10.717a36.223 36.223 0 0 0-11.19 1.659 39.477 39.477 0 0 0-6.542-.634 20.358 20.358 0 0 0-11.4 2.971 49.716 49.716 0 0 0-8.05-2.138c-7.871-1.367-14.215-.301-18.85 3.167-5.623 4.2-8.228 11.496-7.746 21.687.153 3.236 1.863 13.08 4.557 22.416a80.137 80.137 0 0 0 4.905 13.246c2.421 4.855 5.012 7.714 7.92 8.74a7.458 7.458 0 0 0 7.708-1.768 6.867 6.867 0 0 0 1.621 1.476 10.473 10.473 0 0 0 3.058 1.364 15.584 15.584 0 0 0 10.691-.674c.019.588.034 1.149.047 1.634.021.786.041 1.558.069 2.279.185 4.876.5 8.668 1.428 11.321.051.146.12.368.192.6a13.868 13.868 0 0 0 3.21 5.984 9.271 9.271 0 0 0 6.773 2.665 14.422 14.422 0 0 0 3.166-.373c3.384-.767 7.227-1.936 10.007-6.125 2.628-3.96 3.906-9.923 4.137-19.321l.084-.761.055-.5.619.058.16.011a23.311 23.311 0 0 0 10.249-1.879c2.045-1 8.6-4.665 7.056-9.608" fill="#fff"/><path data-name="Trazado 50" d="M97.665 74.467c-10.191 2.237-10.892-1.434-10.892-1.434 10.76-16.988 15.258-38.552 11.376-43.83-10.589-14.396-28.921-7.591-29.227-7.411l-.1.019a34.243 34.243 0 0 0-6.8-.754 16.106 16.106 0 0 0-10.761 3.428S18.56 10.151 20.081 42.512c.324 6.885 9.274 52.092 19.95 38.437 3.9-4.993 7.672-9.215 7.672-9.215a9.448 9.448 0 0 0 6.464 1.756l.183-.165a8.056 8.056 0 0 0 .073 1.944c-2.75 3.269-1.942 3.843-7.44 5.048-5.563 1.22-2.3 3.392-.161 3.959 2.587.688 8.571 1.663 12.615-4.36l-.161.687c1.077.918 1.834 5.973 1.707 10.556s-.211 7.729.638 10.186 1.7 7.987 8.923 6.339c6.039-1.377 9.169-4.945 9.6-10.9.309-4.232 1.008-3.606 1.052-7.39l.565-1.782c.647-5.736.1-7.587 3.823-6.726l.9.085a19.5 19.5 0 0 0 8.426-1.509c4.529-2.236 7.216-5.971 2.75-4.99" fill="#336791"/><path data-name="Trazado 51" d="M53.171 45.592a3.366 3.366 0 0 0-2.31.329.847.847 0 0 0-.351.564 1.648 1.648 0 0 0 .4 1.078 3.02 3.02 0 0 0 1.917 1.2 2.232 2.232 0 0 0 .307.021 2.485 2.485 0 0 0 2.354-1.6c.118-.852-1.118-1.419-2.317-1.586" fill="#fff"/><path data-name="Trazado 52" d="M83.792 45.619c-.093-.668-1.281-.858-2.409-.7s-2.218.665-2.126 1.334a2.286 2.286 0 0 0 2.125 1.409 2.053 2.053 0 0 0 .284-.02 2.736 2.736 0 0 0 1.546-.846 1.7 1.7 0 0 0 .58-1.176" fill="#fff"/><path data-name="Trazado 53" d="M101.132 74.214c-.389-1.25-1.643-1.652-3.725-1.2-6.182 1.355-8.4.416-9.123-.152a93.128 93.128 0 0 0 10.891-25.933 52.117 52.117 0 0 0 1.614-11.153c.05-3.451-.5-5.986-1.644-7.535-4.6-6.244-11.355-9.593-19.53-9.685a31.72 31.72 0 0 0-11.289 1.89 26.6 26.6 0 0 0-6.353-.866 17.571 17.571 0 0 0-10.885 3.186 46.389 46.389 0 0 0-8.846-2.463c-7.167-1.225-12.861-.3-16.925 2.76-4.85 3.648-7.089 10.17-6.655 19.382.146 3.1 1.809 12.635 4.434 21.766 3.455 12.02 7.21 18.823 11.16 20.223a4.736 4.736 0 0 0 1.584.278c1.441 0 3.209-.69 5.047-3.037 3.054-3.9 5.906-7.171 6.957-8.359a10.707 10.707 0 0 0 5 1.429c0 .048.008.1.012.145-.35.441-.638.828-.882 1.158-1.209 1.63-1.461 1.97-5.353 2.821-1.107.242-4.048.886-4.091 3.075-.047 2.392 3.476 3.4 3.878 3.5a15.7 15.7 0 0 0 4.032.555 11.348 11.348 0 0 0 8.074-3.2c-.068 8.527.267 16.929 1.231 19.488.789 2.1 2.719 7.217 8.812 7.217a13.347 13.347 0 0 0 2.961-.357c6.359-1.448 9.121-4.432 10.189-11.012.572-3.517 1.553-11.914 2.014-16.418a11.777 11.777 0 0 0 3.582.47 20.243 20.243 0 0 0 8.133-1.646c2.3-1.133 6.444-3.914 5.692-6.33ZM85.988 43.776a28.952 28.952 0 0 1-.376 3.8 37.161 37.161 0 0 0-.451 4.457 35.853 35.853 0 0 0 .332 5.041c.38 3.361.771 6.822-.74 10.237a13.657 13.657 0 0 1-.67-1.462c-.188-.483-.6-1.26-1.16-2.335-2.2-4.184-7.342-13.982-4.709-17.981.785-1.19 2.776-2.414 7.773-1.755ZM79.93 21.249c7.326.171 13.119 3.081 17.226 8.648 1.9 2.579 1.389 10.688-1.645 20.8a89.423 89.423 0 0 1-8.7 19.662c-.1-.134-.2-.269-.3-.407l-.127-.168c2.592-4.546 2.085-9.043 1.634-13.03a33.2 33.2 0 0 1-.316-4.634 34.766 34.766 0 0 1 .423-4.135 27.686 27.686 0 0 0 .4-5.118 2.248 2.248 0 0 0 .042-.721c-.163-1.84-2.141-7.344-6.172-12.328a28.053 28.053 0 0 0-9.827-7.831 31.216 31.216 0 0 1 7.362-.735ZM38.943 79.957c-2.026 2.587-3.425 2.091-3.885 1.928-3-1.062-6.476-7.789-9.542-18.458-2.653-9.231-4.2-18.513-4.327-21.116-.388-8.232 1.492-13.969 5.585-17.052 6.662-5.017 17.616-2.014 22.017-.491-.063.066-.129.128-.192.2-7.222 7.746-7.051 20.98-7.033 21.788 0 .312.024.754.058 1.362a58.151 58.151 0 0 1-.262 11.06 14.552 14.552 0 0 0 3.471 11.707q.432.478.9.9a193.491 193.491 0 0 0-6.79 8.177Zm7.713-10.935a11.775 11.775 0 0 1-2.792-9.476 60.774 60.774 0 0 0 .282-11.591c-.018-.324-.034-.609-.044-.833 1.055-.993 5.945-3.776 9.431-2.927 1.591.387 2.561 1.538 2.964 3.517 2.086 10.246.276 14.517-1.178 17.949-.3.707-.583 1.375-.825 2.067l-.187.535a36.578 36.578 0 0 0-1.19 3.8 8.773 8.773 0 0 1-6.461-3.04Zm.366 13.819a5.434 5.434 0 0 1-1.688-.771 7.862 7.862 0 0 1 1.8-.568c4.579-1 5.287-1.708 6.831-3.79.354-.477.755-1.019 1.311-1.678.828-.984 1.207-.817 1.893-.515a2.821 2.821 0 0 1 1.318 1.8 2.114 2.114 0 0 1-.161 1.684c-3.226 4.8-7.927 4.735-11.3 3.838Zm23.969 23.681c-5.6 1.275-7.586-1.761-8.893-5.231-.844-2.24-1.258-12.342-.964-23.5a1.42 1.42 0 0 0-.055-.427 5.956 5.956 0 0 0-.157-.788 5.374 5.374 0 0 0-2.782-3.544 3.722 3.722 0 0 0-2.561-.329 34.308 34.308 0 0 1 1.1-3.505l.188-.538c.212-.606.479-1.235.76-1.9 1.522-3.591 3.606-8.509 1.344-19.62-.847-4.161-3.677-6.194-7.967-5.722a17.634 17.634 0 0 0-6.1 2.016c-.252.136-.483.267-.7.395.327-4.193 1.565-12.029 6.194-16.987a14.725 14.725 0 0 1 11.525-4.58 23.974 23.974 0 0 1 18.666 9.472 30.619 30.619 0 0 1 5.108 9.3c-4.723-.51-7.935.48-9.563 2.952-3.542 5.377 1.938 15.814 4.572 20.829.483.919.9 1.714 1.031 2.051a18.826 18.826 0 0 0 2.779 4.757c.249.33.49.649.673.929-1.43.438-4 1.45-3.765 6.507-.189 2.538-1.532 14.419-2.214 18.616-.9 5.546-2.822 7.611-8.226 8.841Zm23.384-28.416a17.526 17.526 0 0 1-6.236 1.381c-2.569.128-3.876-.306-4.183-.572-.145-3.152.96-3.481 2.129-3.829.184-.055.363-.108.536-.172a4.392 4.392 0 0 0 .355.273c2.064 1.447 5.746 1.6 10.944.463l.057-.012a13.95 13.95 0 0 1-3.6 2.469Z" fill="#fff"/><text data-name="POSTGRESQL" transform="translate(114 91)" fill="#fff" font-size="77" font-family="SegoeUI-Bold, Segoe UI" font-weight="700"><tspan x="0" y="0">POSTGRESQL</tspan></text></g></g></g></svg>