<svg xmlns="http://www.w3.org/2000/svg" width="448" height="128"><g data-name="Grupo 10"><g data-name="Grupo 9"><path data-name="Trazado 39" d="M0 0h448v128H0Z" fill="#2b5b84"/><text transform="translate(121 91)" fill="#fff" font-size="77" font-family="SegoeUI-Bold, Segoe UI" font-weight="700"><tspan x="0" y="0">PYTHON</tspan></text><g data-name="python" fill="#fff"><path data-name="Trazado 29" d="M64.574 16.491c-24.33 0-22.811 10.551-22.811 10.551l.027 10.931h23.218v3.282h-32.44S17 39.489 17 64.039s13.588 23.68 13.588 23.68h8.11V76.326s-.437-13.589 13.372-13.589h23.028s12.938.209 12.938-12.5V29.212s1.965-12.721-23.462-12.721Zm-12.8 7.35a4.177 4.177 0 1 1-4.179 4.178 4.173 4.173 0 0 1 4.177-4.177Z"/><path data-name="Trazado 30" d="M64.425 111.491c24.33 0 22.811-10.551 22.811-10.551l-.027-10.931H63.991v-3.282h32.44S112 88.493 112 63.94 98.411 40.261 98.411 40.261h-8.11v11.395s.437 13.584-13.372 13.584H53.901s-12.938-.2-12.938 12.509V98.77s-1.964 12.721 23.462 12.721Zm12.8-7.35a4.177 4.177 0 1 1 4.177-4.177 4.173 4.173 0 0 1-4.177 4.177Z"/></g></g></g></svg>