<svg xmlns="http://www.w3.org/2000/svg" width="384" height="128"><g data-name="Grupo 23"><g data-name="Grupo 22"><g data-name="Grupo 21"><path data-name="Rectángulo 14" fill="#00d8ff" d="M0 0h384v128H0z"/><path data-name="Trazado 48" d="M101.509 47.139q-1.618-.578-3.348-1.1.284-1.2.518-2.371c2.534-12.768.876-23.058-4.779-26.445-5.425-3.248-14.3.139-23.259 8.236q-1.292 1.168-2.59 2.467-.863-.857-1.723-1.652c-9.395-8.659-18.808-12.308-24.461-8.91-5.42 3.258-7.025 12.936-4.744 25.036q.33 1.754.769 3.577a66.862 66.862 0 0 0-3.849 1.257C23.032 51.219 16 57.466 16 63.945c0 6.692 7.549 13.4 19.017 17.474q1.358.482 2.812.913-.471 1.97-.817 3.854c-2.175 11.895-.476 21.339 4.929 24.577 5.584 3.343 14.955-.093 24.08-8.375q1.082-.982 2.17-2.077 1.409 1.411 2.809 2.665c8.839 7.9 17.568 11.086 22.969 7.84 5.578-3.353 7.391-13.5 5.037-25.843q-.269-1.414-.624-2.886.987-.3 1.934-.628C112.243 77.357 120 70.727 120 63.945c0-6.5-7.259-12.792-18.491-16.806ZM98.923 77.08q-.853.293-1.747.567a110.684 110.684 0 0 0-5.266-13.68 110.714 110.714 0 0 0 5.061-13.48q1.6.479 3.092 1.013c9.624 3.44 15.494 8.526 15.494 12.445 0 4.174-6.34 9.593-16.634 13.135Zm-4.271 8.788a40.536 40.536 0 0 1 .5 14.251c-.62 3.467-1.865 5.778-3.406 6.7-3.277 1.969-10.286-.591-17.845-7.344Q72.6 98.317 71.286 97A107.805 107.805 0 0 0 80 85.511a100.15 100.15 0 0 0 14.085-2.255q.318 1.333.563 2.612Zm-43.2 20.615c-3.2 1.174-5.753 1.208-7.294.285-3.281-1.964-4.644-9.548-2.784-19.72q.32-1.748.759-3.585a100.9 100.9 0 0 0 14.015 2.106 111.629 111.629 0 0 0 8.928 11.452q-1 1-1.981 1.895a37.433 37.433 0 0 1-11.642 7.567Zm-15-29.428a37.213 37.213 0 0 1-12.13-6.691c-2.579-2.293-3.882-4.571-3.882-6.418 0-3.932 5.646-8.947 15.062-12.356 1.143-.414 2.339-.8 3.58-1.17a113.193 113.193 0 0 0 5.069 13.638 115.055 115.055 0 0 0-5.132 13.832q-1.327-.4-2.567-.835Zm5.029-35.541c-1.955-10.371-.656-18.195 2.61-20.158 3.479-2.091 11.173.89 19.282 8.366q.778.717 1.56 1.5A109.861 109.861 0 0 0 56.076 42.6 104.878 104.878 0 0 0 42.2 44.841q-.406-1.7-.715-3.327Zm44.861 11.5q-1.544-2.768-3.163-5.4a94.713 94.713 0 0 1 9.483 1.721c-.9 2.983-2.013 6.1-3.328 9.3q-1.416-2.79-2.992-5.619ZM68.05 34.515a97.942 97.942 0 0 1 6.12 7.671q-3.051-.15-6.17-.152-3.085 0-6.122.149a101.095 101.095 0 0 1 6.172-7.668ZM49.638 53.047Q48.1 55.823 46.7 58.631a102.981 102.981 0 0 1-3.3-9.344 96.773 96.773 0 0 1 9.429-1.68q-1.638 2.653-3.188 5.44Zm3.283 27.566a91.341 91.341 0 0 1-9.585-1.6 106.29 106.29 0 0 1 3.371-9.533q1.4 2.8 2.948 5.587 1.58 2.834 3.265 5.545ZM68.173 93.7a102.56 102.56 0 0 1-6.257-7.775q2.987.121 6.085.123 3.18 0 6.278-.145a97.518 97.518 0 0 1-6.105 7.8Zm21.205-24.386a100.151 100.151 0 0 1 3.492 9.5 91.082 91.082 0 0 1-9.7 1.717q1.62-2.664 3.193-5.494 1.589-2.862 3.016-5.722Zm-6.865 3.417a156.17 156.17 0 0 1-4.989 8.358c-3.086.229-6.275.347-9.524.347s-6.385-.1-9.416-.309a131.446 131.446 0 0 1-5.083-8.371 130.47 130.47 0 0 1-4.437-8.7c1.343-2.9 2.822-5.821 4.424-8.7 1.606-2.892 3.3-5.68 5.043-8.335 3.093-.243 6.265-.369 9.47-.369 3.22 0 6.4.128 9.488.372 1.72 2.636 3.4 5.415 5.011 8.307a152.598 152.598 0 0 1 4.483 8.664 140.614 140.614 0 0 1-4.469 8.741Zm9.165-51.512c3.482 2.085 4.837 10.495 2.649 21.523q-.21 1.055-.468 2.147a102.807 102.807 0 0 0-13.906-2.281 107.727 107.727 0 0 0-8.791-11.392q1.2-1.2 2.392-2.278c7.678-6.938 14.855-9.677 18.124-7.719ZM68 54.3a9.649 9.649 0 1 1-9.287 9.642A9.47 9.47 0 0 1 68 54.3Z" fill="#fff"/><text data-name="REACT" transform="translate(131 91)" fill="#fff" font-size="77" font-family="SegoeUI-Bold, Segoe UI" font-weight="700"><tspan x="0" y="0">REACT</tspan></text></g></g></g></svg>