<svg xmlns="http://www.w3.org/2000/svg" width="320" height="128"><g data-name="Grupo 7"><path data-name="Rectángulo 5" fill="#cd6799" d="M0 0h320v128H0z"/><path data-name="Trazado 5" d="M64 16c-26.485 0-48 21.739-48 48.5S37.515 113 64 113s48-21.739 48-48.5S90.485 16 64 16Zm0 4.217A44.285 44.285 0 1 1 20.174 64.5 44.024 44.024 0 0 1 64 20.217Zm11.788 10.548A35.812 35.812 0 0 0 64.4 32.9c-7.327 2.629-15.258 6.76-20.959 12.15-6.78 6.409-7.863 11.984-7.418 14.316 1.572 8.224 12.726 13.6 17.311 17.59v.025c-1.353.673-11.247 5.729-13.561 10.9-2.444 5.457.387 9.374 2.262 9.9 5.81 1.634 11.77-1.306 14.976-6.133A15.518 15.518 0 0 0 58.5 77.984a17.63 17.63 0 0 1 6.758-.4c7.749.915 9.27 5.8 8.98 7.85a5.166 5.166 0 0 1-2.458 3.513c-.543.339-.71.455-.664.708.067.367.315.356.778.276a6.086 6.086 0 0 0 4.22-5.431c.186-4.8-4.365-10.164-12.414-10.025a21.036 21.036 0 0 0-6.9.943 19.994 19.994 0 0 0-.342-.383c-4.978-5.366-14.184-9.161-13.794-16.375.136-2.624 1.036-9.53 17.676-17.907 13.63-6.861 24.544-4.973 26.429-.787 2.694 5.98-5.834 17.091-19.989 18.694-5.393.611-8.23-1.5-8.935-2.286-.743-.829-.856-.867-1.133-.713-.453.253-.165.987 0 1.421a8.411 8.411 0 0 0 5.111 4.061c2.6.862 8.935 1.339 16.594-1.656 8.573-3.352 15.271-12.679 13.3-20.473-1.37-5.449-7.951-8.383-15.929-8.249ZM55.232 79.413a11.538 11.538 0 0 1-.09 6.668 11.67 11.67 0 0 1-.53 1.322 12.406 12.406 0 0 1-2.042 3c-2.567 2.83-6.149 3.9-7.688 3-1.661-.972-.832-4.96 2.144-8.138a29.868 29.868 0 0 1 7.81-5.618l-.008-.016c.132-.069.272-.142.404-.218Zm0 0" fill="#fff"/><text transform="translate(124 91)" fill="#fff" font-size="77" font-family="SegoeUI-Bold, Segoe UI" font-weight="700"><tspan x="0" y="0">SASS</tspan></text></g></svg>