<svg xmlns="http://www.w3.org/2000/svg" width="488" height="128"><g data-name="Grupo 58"><g data-name="Grupo 57"><g data-name="Grupo 56"><path data-name="Trazado 85" d="M0 0h488v128H0Z" fill="#a4c639"/><text transform="translate(113 91)" fill="#fff" font-size="77" font-family="SegoeUI-Bold, Segoe UI" font-weight="700"><tspan x="0" y="0">ANDROID</tspan></text><path data-name="Trazado 80" d="M40.319 15a2.8 2.8 0 0 0-1.353.359 2.959 2.959 0 0 0-1.107 3.952l3.076 5.676A25.849 25.849 0 0 0 28.613 46.81V48.508a7.662 7.662 0 0 0-5.853-2.73A7.851 7.851 0 0 0 15 53.707v24.428a7.851 7.851 0 0 0 7.76 7.93 7.662 7.662 0 0 0 5.853-2.73v3.422a8.324 8.324 0 0 0 8.208 8.385H38.9v10.87a7.762 7.762 0 1 0 15.52 0v-10.87h3.6v10.87a7.762 7.762 0 1 0 15.52 0v-10.87h2.09a8.324 8.324 0 0 0 8.208-8.388v-3.419a7.661 7.661 0 0 0 5.853 2.73 7.851 7.851 0 0 0 7.76-7.93V53.707a7.851 7.851 0 0 0-7.76-7.93 7.661 7.661 0 0 0-5.853 2.73V46.81a25.85 25.85 0 0 0-12.33-21.814l3.085-5.685a2.959 2.959 0 0 0-1.107-3.952A2.8 2.8 0 0 0 72.132 15a2.835 2.835 0 0 0-2.513 1.491l-3.225 5.951a29.065 29.065 0 0 0-20.336-.009l-3.226-5.942A2.835 2.835 0 0 0 40.319 15Z" fill="#a4c639"/><path data-name="Trazado 81" d="M22.798 47.843a5.766 5.766 0 0 0-5.732 5.864v24.428a5.734 5.734 0 1 0 11.464 0V53.707a5.766 5.766 0 0 0-5.732-5.864Zm66.856 0a5.766 5.766 0 0 0-5.732 5.864v24.428a5.734 5.734 0 1 0 11.464 0V53.707a5.766 5.766 0 0 0-5.732-5.864Z" fill="#fff"/><path data-name="Trazado 82" d="M46.455 75.719a5.83 5.83 0 0 0-5.864 5.865v24.427a5.865 5.865 0 0 0 11.729 0V81.584a5.83 5.83 0 0 0-5.864-5.865Zm19.542 0a5.83 5.83 0 0 0-5.865 5.865v24.427a5.865 5.865 0 0 0 11.729 0V81.584a5.83 5.83 0 0 0-5.864-5.865Z" fill="#fff"/><path data-name="Trazado 83" d="M40.549 17.065a.766.766 0 0 0-.382.108.824.824 0 0 0-.312 1.132l3.988 7.463a23.979 23.979 0 0 0-12.871 21.015h50.5a23.98 23.98 0 0 0-12.865-21.015l3.988-7.463a.824.824 0 0 0-.312-1.132.765.765 0 0 0-.381-.108.788.788 0 0 0-.711.431l-4.04 7.544a26.356 26.356 0 0 0-21.85 0l-4.041-7.543a.788.788 0 0 0-.711-.431Zm-9.577 31.784v37.907a6.2 6.2 0 0 0 6.1 6.322h38.3a6.2 6.2 0 0 0 6.1-6.322V48.849Z" fill="#fff"/><path data-name="Trazado 84" d="M44.156 32.845a2.182 2.182 0 1 0 2.182 2.182 2.2 2.2 0 0 0-2.182-2.182Zm24.14 0a2.182 2.182 0 1 0 2.182 2.182 2.2 2.2 0 0 0-2.182-2.182Z" fill="#a4c639"/></g></g></g></svg>
