<svg xmlns="http://www.w3.org/2000/svg" width="584" height="128"><g data-name="Grupo 16"><g data-name="Grupo 15"><path data-name="Rectángulo 6" fill="#563d7c" d="M0 0h584v128H0z"/><text transform="translate(122 91)" fill="#fff" font-size="77" font-family="SegoeUI-Bold, Segoe UI" font-weight="700"><tspan x="0" y="0">BOOTSTRAP</tspan></text><g data-name="bootstrap"><path data-name="Trazado 22" d="M16 99.622A12.378 12.378 0 0 0 28.378 112h71.244A12.378 12.378 0 0 0 112 99.622V28.378A12.378 12.378 0 0 0 99.622 16H28.378A12.378 12.378 0 0 0 16 28.378Z" fill="#fff"/><path data-name="Trazado 23" d="M55.783 58.471v-13.58h11.988a18.717 18.717 0 0 1 3.3.285 8.267 8.267 0 0 1 2.814 1.016 5.421 5.421 0 0 1 1.957 2.033 6.734 6.734 0 0 1 .734 3.334q0 3.659-2.2 5.285a9.222 9.222 0 0 1-5.627 1.627Zm-12.8-23.5V93.03h28.216a29.851 29.851 0 0 0 7.625-.976 20.421 20.421 0 0 0 6.605-3.009 14.833 14.833 0 0 0 4.607-5.245 17.7 17.7 0 0 0-.938-16.914 14 14 0 0 0-8.033-5.408 14.5 14.5 0 0 0 5.912-4.8 12.689 12.689 0 0 0 2-7.318 15.535 15.535 0 0 0-1.346-6.83 11.165 11.165 0 0 0-3.792-4.432 16.4 16.4 0 0 0-5.871-2.4 36.363 36.363 0 0 0-7.584-.732Zm12.8 48.138V67.171h13.945a10.812 10.812 0 0 1 6.687 1.911q2.528 1.911 2.528 6.383a7.96 7.96 0 0 1-.775 3.74 6.142 6.142 0 0 1-2.08 2.317 8.821 8.821 0 0 1-3.017 1.22 17.139 17.139 0 0 1-3.588.366Z" fill="#563d7c"/></g></g></g></svg>