<svg xmlns="http://www.w3.org/2000/svg" width="304" height="128"><g data-name="Grupo 3"><path data-name="Trazado 41" d="M0 0h304v128H0Z" fill="#2965f1"/><text transform="translate(116 92)" fill="#fff" font-size="77" font-family="SegoeUI-Bold, Segoe UI" font-weight="700"><tspan x="0" y="0">CSS3</tspan></text><path data-name="Trazado 6" d="M96.527 101.895 60.16 112l-36.367-10.105L16 16h88.32l-7.793 85.895Zm2.121-80.842H21.672l6.981 76.934 31.507 8.763 31.507-8.763ZM38.862 71.579h10.391l.254 6.316 10.655 3.533 10.654-3.533.771-11.368H48.735l-.528-10.105h23.907l.771-10.105h-35.84l-.781-10.105H83.8l-1.3 20.211-1.827 29.053-20.517 6.572-20.517-6.572Zm0 0" fill="#fff" fill-rule="evenodd"/></g></svg>