<svg xmlns="http://www.w3.org/2000/svg" width="456" height="128"><g data-name="Grupo 28"><g data-name="Grupo 27"><path data-name="Rectángulo 13" fill="#2396ed" d="M0 0h456v128H0z"/><path data-name="Trazado 43" d="M125.688 53.657c-2.522-1.868-8.3-2.568-12.821-1.634-.525-4.669-2.942-8.754-7.146-12.373l-2.417-1.868-1.682 2.685a23.327 23.327 0 0 0-2.836 13.074 16.334 16.334 0 0 0 2.207 7.12 16.646 16.646 0 0 1-8.512 2.1H16.505l-.21.934c-.736 4.669-.736 19.26 7.881 30.465 6.515 8.521 16.183 12.84 28.9 12.84 27.532 0 47.918-14.124 57.481-39.686 3.783.117 11.875 0 15.973-8.754.1-.233.315-.7 1.051-2.451l.42-.934-2.312-1.517ZM77.244 20.741H65.685v11.672h11.56V20.741Zm0 14.007H65.685V46.42h11.56V34.748Zm-13.661 0H52.024V46.42h11.559V34.748Zm-13.661 0H38.363V46.42h11.559V34.748ZM36.261 48.755H24.7v11.672h11.561V48.755Zm13.661 0H38.363v11.672h11.559V48.755Zm13.661 0H52.024v11.672h11.559V48.755Zm13.661 0H65.685v11.672h11.56V48.755Zm13.661 0H79.346v11.672h11.56V48.755Z" fill="#fbfbfb"/><text transform="translate(137 92)" fill="#fff" font-size="77" font-family="SegoeUI-Bold, Segoe UI" font-weight="700"><tspan x="0" y="0">DOCKER</tspan></text></g></g></svg>