<svg xmlns="http://www.w3.org/2000/svg" width="778.099" height="259.824"><defs><clipPath id="a"><path data-name="Trazado 60" d="M98.1 244.8c1.6 7.5 5.5 11.9 9.4 14.5h41.1c5-3.4 10.1-9.8 10.1-21.8v-31s.6-7.7 7.7-10.2c0 0 4.1-2.9-.3-4.5 0 0-19.5-1.6-19.5 14.4v23.6s.8 8.7-3.8 12.3v-29.2s.3-9.3 5.1-12.8c0 0 3.2-5.7-3.8-4.2 0 0-13.4 1.9-14 17.6l-.3 30h-3.2l-.3-30c-.6-15.6-14-17.6-14-17.6-7-1.6-3.8 4.2-3.8 4.2 4.8 3.5 5.1 12.8 5.1 12.8v29.5c-4.6-3.3-3.8-12.6-3.8-12.6v-23.6c0-16-19.5-14.4-19.5-14.4-4.5 1.6-.3 4.5-.3 4.5 7 2.6 7.7 10.2 7.7 10.2v21.7Z"/></clipPath></defs><g data-name="Grupo 55"><g data-name="Grupo 54"><path data-name="Trazado 58" d="M201.499 200.324c0 13.9-32.2 25.1-71.9 25.1s-71.9-11.3-71.9-25.1c0-13.9 32.2-25.1 71.9-25.1s71.9 11.2 71.9 25.1Zm0 0" fill="#9edcf2" stroke="#fff"/><g data-name="Grupo 53"><g data-name="Grupo 52" clip-path="url(#a)" transform="translate(.599 .524)"><path data-name="Trazado 59" d="M200.9 199.8c0 13.9-32.2 25.1-71.9 25.1s-71.9-11.3-71.9-25.1c0-13.9 32.2-25.1 71.9-25.1s71.9 11.2 71.9 25.1Zm0 0" fill="#7dbce7"/></g></g><path data-name="Trazado 61" d="m47.499 126.424-2.1 7.2s-.5 2.6 1.9 3.1c2.6-.1 2.4-2.5 2.2-3.2l-2-7.1Zm0 0" fill="#9edcf2"/><path data-name="Trazado 62" d="m256.399 96.124.2-.9c-21.1-4.2-42.7-4.3-55.8-3.7 2.1-7.7 2.8-16.7 2.8-26.6a47.05 47.05 0 0 0-14-34.3c1.5-4.9 3.5-15.8-2-29.7 0 0-9.8-3.1-32.1 11.8a112.137 112.137 0 0 0-27.3-3.3 117.454 117.454 0 0 0-30.2 3.9c-23-15.7-33.1-12.5-33.1-12.5-6.6 16.5-2.5 28.8-1.3 31.8a45.961 45.961 0 0 0-12.5 32.2c0 9.9 1.1 18.8 3.9 26.5-13.2-.5-34-.3-54.4 3.8l.2.9c20.4-4.1 41.4-4.2 54.5-3.7.6 1.6 1.3 3.2 2 4.7-13 .4-35.1 2.1-56.3 8.1l.3.9c21.4-6 43.7-7.6 56.6-8 7.8 14.4 23 23.8 50.2 26.7-3.9 2.6-7.8 7-9.4 14.5-5.3 2.5-21.9 8.7-31.9-8.5 0 0-5.6-10.2-16.3-11 0 0-10.4-.2-.7 6.5 0 0 6.9 3.3 11.7 15.6 0 0 6.3 21 36.4 14.2v21.5s-.6 7.7-7.7 10.2c0 0-4.2 2.9.3 4.5 0 0 19.5 1.6 19.5-14.4v-23.6s-.8-9.4 3.8-12.6v38.8s-.3 9.3-5.1 12.8c0 0-3.2 5.7 3.8 4.2 0 0 13.4-1.9 14-17.6l.3-39.3h3.2l.3 39.3c.6 15.6 14 17.6 14 17.6 7 1.6 3.8-4.2 3.8-4.2-4.8-3.5-5.1-12.8-5.1-12.8v-38.5c4.6 3.6 3.8 12.3 3.8 12.3v23.6c0 16 19.5 14.4 19.5 14.4 4.5-1.6.3-4.5.3-4.5-7-2.6-7.7-10.2-7.7-10.2v-31c0-12.1-5.1-18.5-10.1-21.8 29-2.9 42.9-12.2 49.3-26.8 12.7.3 35.6 1.9 57.4 8.1l.3-.9c-21.7-6.1-44.4-7.7-57.3-8.1.6-1.5 1.1-3 1.6-4.6 13.4-.5 35.1-.5 56.3 3.7Zm0 0" fill="#010101" stroke="#fff"/><path data-name="Trazado 63" d="M175.199 64.224c6.2 5.7 9.9 12.5 9.9 19.8 0 34.4-25.6 35.3-57.2 35.3s-57.2-4.8-57.2-35.3c0-7.3 3.6-14.1 9.8-19.7 10.3-9.4 27.7-4.4 47.4-4.4s37-5.1 47.3 4.3Zm0 0" fill="#f5ccb3"/><path data-name="Trazado 64" d="M108.899 85.824c0 9.5-5.3 17.1-11.9 17.1s-11.9-7.7-11.9-17.1c0-9.5 5.3-17.1 11.9-17.1 6.6-.1 11.9 7.6 11.9 17.1Zm0 0" fill="#fff"/><path data-name="Trazado 65" d="M105.099 86.024c0 6.3-3.6 11.4-7.9 11.4-4.4 0-7.9-5.1-7.9-11.4s3.6-11.4 7.9-11.4 7.9 5.1 7.9 11.4Zm0 0" fill="#af5c51"/><path data-name="Trazado 66" d="M172.799 85.824c0 9.5-5.3 17.1-11.9 17.1s-11.9-7.7-11.9-17.1c0-9.5 5.3-17.1 11.9-17.1 6.5-.1 11.9 7.6 11.9 17.1Zm0 0" fill="#fff"/><path data-name="Trazado 67" d="M168.899 86.024c0 6.3-3.6 11.4-7.9 11.4-4.4 0-7.9-5.1-7.9-11.4s3.6-11.4 7.9-11.4c4.4 0 7.9 5.1 7.9 11.4Zm0 0" fill="#af5c51"/><path data-name="Trazado 68" d="M131.099 101.024a3 3 0 0 1-6 0 2.946 2.946 0 0 1 3-3 3.009 3.009 0 0 1 3 3Zm0 0" fill="#af5c51"/><path data-name="Trazado 69" d="M121.199 108.524a.949.949 0 1 1 1.8-.6 5.378 5.378 0 0 0 5.1 3.6 5.517 5.517 0 0 0 5.1-3.6.949.949 0 0 1 1.8.6 7.308 7.308 0 0 1-13.8 0Zm0 0" fill="#af5c51"/><path data-name="Trazado 70" d="M55.099 122.124c0 .8-.9 1.4-2.1 1.4-1.1 0-2.1-.6-2.1-1.4s.9-1.4 2.1-1.4 2.1.6 2.1 1.4Zm0 0" fill="#c4e5d9"/><path data-name="Trazado 71" d="M60.899 125.324c0 .8-.9 1.4-2.1 1.4-1.1 0-2.1-.6-2.1-1.4s.9-1.4 2.1-1.4 2.1.6 2.1 1.4Zm0 0" fill="#c4e5d9"/><path data-name="Trazado 72" d="M64.399 129.524c0 .8-.9 1.4-2.1 1.4-1.1 0-2.1-.6-2.1-1.4s.9-1.4 2.1-1.4c1.2-.1 2.1.6 2.1 1.4Zm0 0" fill="#c4e5d9"/><path data-name="Trazado 73" d="M67.599 134.324c0 .8-.9 1.4-2.1 1.4-1.1 0-2.1-.6-2.1-1.4s.9-1.4 2.1-1.4c1.2-.1 2.1.6 2.1 1.4Zm0 0" fill="#c4e5d9"/><path data-name="Trazado 74" d="M71.099 138.724c0 .8-.9 1.4-2.1 1.4-1.1 0-2.1-.6-2.1-1.4s.9-1.4 2.1-1.4 2.1.6 2.1 1.4Zm0 0" fill="#c4e5d9"/><path data-name="Trazado 75" d="M75.899 142.624c0 .8-.9 1.4-2.1 1.4-1.1 0-2.1-.6-2.1-1.4s.9-1.4 2.1-1.4c1.2-.1 2.1.6 2.1 1.4Zm0 0" fill="#c4e5d9"/><path data-name="Trazado 76" d="M82.599 145.124c0 .8-.9 1.4-2.1 1.4-1.1 0-2.1-.6-2.1-1.4s.9-1.4 2.1-1.4 2.1.6 2.1 1.4Zm0 0" fill="#c4e5d9"/><path data-name="Trazado 77" d="M89.299 145.124c0 .8-.9 1.4-2.1 1.4-1.1 0-2.1-.6-2.1-1.4s.9-1.4 2.1-1.4 2.1.6 2.1 1.4Zm0 0" fill="#c4e5d9"/><path data-name="Trazado 78" d="M96.099 144.024c0 .8-.9 1.4-2.1 1.4-1.1 0-2.1-.6-2.1-1.4s.9-1.4 2.1-1.4c1.1 0 2.1.6 2.1 1.4Zm0 0" fill="#c4e5d9"/><path data-name="Trazado 79" d="M364.299 101.868h-43.064a2.014 2.014 0 0 0-2.012 2.014v21.053a2.015 2.015 0 0 0 2.012 2.014h16.8v26.157s-3.772 1.286-14.2 1.286c-12.3 0-29.489-4.5-29.489-42.288s17.9-42.774 34.7-42.774c14.543 0 20.809 2.561 24.8 3.794a2.026 2.026 0 0 0 2.402-1.968l4.8-20.342a1.876 1.876 0 0 0-.769-1.572c-1.616-1.159-11.493-6.686-36.446-6.686-28.747 0-58.234 12.23-58.234 71.023s33.761 67.556 62.209 67.556c23.556 0 37.845-10.066 37.845-10.066a1.729 1.729 0 0 0 .653-1.526v-65.661a2.013 2.013 0 0 0-2.007-2.014Zm221.8-51.953a2 2 0 0 0-2-2.024H559.85a2.015 2.015 0 0 0-2.008 2.024l.006 46.856h-37.792V49.915a2.009 2.009 0 0 0-2-2.024H493.81a2.014 2.014 0 0 0-2 2.024v126.872a2.021 2.021 0 0 0 2 2.031h24.245a2.015 2.015 0 0 0 2-2.031V122.52h37.792l-.066 54.267a2.022 2.022 0 0 0 2.008 2.031h24.3a2.015 2.015 0 0 0 2-2.031ZM409.97 66.878a15.634 15.634 0 1 0-15.635 15.8 15.7 15.7 0 0 0 15.635-15.8Zm-1.924 83.212V91.526a2.016 2.016 0 0 0-2.006-2.021h-24.169a2.312 2.312 0 0 0-2.1 2.256v83.905c0 2.466 1.537 3.2 3.526 3.2h21.775c2.389 0 2.975-1.173 2.975-3.239Zm270.715-60.585h-24.062a2.017 2.017 0 0 0-2 2.028v62.21a27.181 27.181 0 0 1-14.788 4.472c-8.675 0-10.977-3.937-10.977-12.431V91.533a2.016 2.016 0 0 0-2-2.028h-24.42a2.021 2.021 0 0 0-2.005 2.028v58.359c0 25.231 14.063 31.4 33.408 31.4 15.869 0 28.665-8.767 28.665-8.767a50.714 50.714 0 0 0 .885 5.168 2.118 2.118 0 0 0 1.77 1.1l15.535-.068a2.021 2.021 0 0 0 2.005-2.025l-.008-85.168a2.019 2.019 0 0 0-2.008-2.027Zm55.438 68.758a28.85 28.85 0 0 1-14.006-4.041v-40.178a32.076 32.076 0 0 1 12.436-4.035c8.664-.776 17.013 1.842 17.013 22.51-.003 21.795-3.771 26.096-15.443 25.744Zm9.49-71.483a45.24 45.24 0 0 0-22.96 6.1V49.915a2.011 2.011 0 0 0-2-2.024h-24.318a2.013 2.013 0 0 0-2 2.024v126.872a2.02 2.02 0 0 0 2.007 2.031h16.87a2.008 2.008 0 0 0 1.759-1.078c.42-.682 1.025-5.849 1.025-5.849s9.942 9.421 28.763 9.421c22.1 0 34.768-11.208 34.768-50.315S757.361 86.78 743.686 86.78Zm-265.861 2.507h-18.187l-.028-24.027c0-.909-.468-1.364-1.519-1.364h-24.785c-.964 0-1.481.424-1.481 1.35v24.83s-12.42 3-13.26 3.241a2.014 2.014 0 0 0-1.452 1.933v15.606a2.013 2.013 0 0 0 2.005 2.027h12.707v37.533c0 27.88 19.556 30.619 32.753 30.619a55.361 55.361 0 0 0 14.434-2.376 1.876 1.876 0 0 0 1.138-1.82l.021-17.164a2.048 2.048 0 0 0-2.011-2.025c-1.059 0-3.771.431-6.562.431-8.933 0-11.96-4.154-11.96-9.53V112.88h18.188a2.014 2.014 0 0 0 2.006-2.027V91.309a2.012 2.012 0 0 0-2.007-2.022Z" stroke="#fff"/></g></g></svg>