<svg xmlns="http://www.w3.org/2000/svg" width="384" height="128"><g data-name="Grupo 14"><g data-name="Grupo 13"><path data-name="Trazado 40" d="M0 0h384v128H0Z" fill="#f16529"/><text transform="translate(114 91)" fill="#fff" font-size="77" font-family="SegoeUI-Bold, Segoe UI" font-weight="700"><tspan x="0" y="0">HTML5</tspan></text><path data-name="Trazado 17" d="M102.371 17.334A4.063 4.063 0 0 0 99.359 16H21.043a4.064 4.064 0 0 0-3.015 1.334 3.986 3.986 0 0 0-1 3.114l8.9 79.424a4.013 4.013 0 0 0 2.908 3.409l30.25 8.562a4.026 4.026 0 0 0 2.223 0l30.249-8.562a4.015 4.015 0 0 0 2.907-3.409l8.909-79.425a3.968 3.968 0 0 0-1.003-3.113ZM82.964 45.769H46.852l.857 10.185h34.386l-2.581 30.09-19.3 6.082-.19-.06-19.087-6.031-1.044-12.261h9.35l.409 4.764 10.664 2.328 10.477-2.332 1.113-12.873H39.189l-2.531-29.628h47.148Zm0 0" fill="#fff"/></g></g></svg>