<svg xmlns="http://www.w3.org/2000/svg" width="805" height="128"><defs><clipPath id="a"><path fill="none" d="M0 20h91v104H0z"/></clipPath></defs><g data-name="Grupo 49"><g data-name="Grupo 48"><g data-name="Grupo 47"><g data-name="Grupo 46"><path data-name="Rectángulo 12" fill="#71b52a" d="M0 0h805v128H0z"/><text data-name="SCREAMING FROG" transform="translate(117 91)" fill="#fff" font-size="77" font-family="SegoeUI-Bold, Segoe UI" font-weight="700"><tspan x="0" y="0">SCREAMING FROG</tspan></text><g data-name="Grupo de desplazamiento 1" transform="translate(15 -8)" clip-path="url(#a)" style="isolation:isolate"><g data-name="Grupo 1"><text data-name="@" transform="translate(0 104)" fill="#fff" font-size="113" font-family="Haettenschweiler"><tspan x="0" y="0">@</tspan></text><g data-name="53-533434_visualizing-website-data-with-screaming-frog-and-google"><path data-name="Trazado 34" d="M29.472 29.303c-.955.74-.955 1.188-.023 2.578a20.334 20.334 0 0 1 1.7 3.766c.8 2.331.818 2.51.432 2.578-.75.134-1.569-.65-3.069-2.869-1.659-2.488-2.364-3.138-3.432-3.138-1.614 0-2.273 2.152-1.023 3.384a2.319 2.319 0 0 0 1.023.65c.2 0 .636.426.955.941a19.06 19.06 0 0 0 2.273 2.555 9.379 9.379 0 0 1 2.341 3.026 38.824 38.824 0 0 1 2.159 6.926 19.759 19.759 0 0 0 2.591 6.388 7.154 7.154 0 0 0 2.841 2.174 12.813 12.813 0 0 1-.75 2.869 93.5 93.5 0 0 0-2.864 10.736c-.341 1.905-.409 2.062-.7 1.681a42.712 42.712 0 0 1-3.182-5.715 18.04 18.04 0 0 0-2.523-4.035l-1.114-1.188-.887.269c-2.364.695-3.228 1.972-3.433 5.021a5.234 5.234 0 0 1-.318 1.86c-.386.247-1.318-1.322-2.137-3.609-1.046-2.981-1.364-3.609-2.114-4.415-.682-.717-1.182-.762-1.7-.2-.591.628-.455 1.322.409 2.443.75.964 1 1.636.637 1.636a83.438 83.438 0 0 1-6.8-4.841c-1.932-1.547-3.251-2.331-3.683-2.174a1.987 1.987 0 0 0-1.409 1.883c0 1.21.568 1.771 2.046 1.972a7.478 7.478 0 0 1 2.023.56 20.866 20.866 0 0 1 4.114 3.945c0 .516-1.068.426-3.228-.314-3.273-1.1-4.092-1.21-4.705-.605a2.678 2.678 0 0 0-.182 2.757c.182.247 1.341.471 3.978.807 4.251.56 4.41.628 6.479 3.138a46.319 46.319 0 0 1 4.933 7.553c3.228 5.671 4.069 7.352 4.342 8.584.25 1.053.341 1.188.75 1.053a15.86 15.86 0 0 1 5.183-.134 25.049 25.049 0 0 1 6.842 3.205 98.944 98.944 0 0 0 12.616 5.783 12.277 12.277 0 0 1 3 1.479c0 .359-2.91 3.228-5.569 5.491a38.084 38.084 0 0 0-6.16 6.343c-1.25 1.883-1.8 4.236-1.228 5.29.341.628 2.137 1.076 5.41 1.345 1.591.134 4.364.493 6.183.807 3.955.695 5.41.628 8.865-.381 2.25-.672 2.66-.717 7.342-.852 4.546-.134 5-.179 5.3-.583a2.589 2.589 0 0 0 0-2.466c-.409-.919-.386-.919-3.728-.336-2.046.381-2.705.426-3.455.224-.773-.2-.909-.336-.909-.852.023-.941.7-2.2 2.591-4.729 1.909-2.555 2.364-3.586 1.978-4.55a1.835 1.835 0 0 0-2.072-1.19c-1.046.224-1.887 1.524-2.341 3.609-.455 2.062-1.046 3.138-1.932 3.474-1.046.4-1.3.045-1.3-1.793 0-1.345-.068-1.681-.432-1.95-.637-.448-.977-.4-1.614.247-.523.493-.568.717-.568 2.667 0 2.017-.023 2.129-.591 2.578-1.3 1.009-1.8.628-2.841-2.084-.409-1.143-.523-1.255-1.137-1.255-.682 0-1.8.852-1.8 1.345a3.607 3.607 0 0 0 .909 1.143c.818.784 1.2 1.771.727 1.771-.432 0-1.25-.807-1.864-1.86-.523-.919-.614-1.21-.409-1.591a47.248 47.248 0 0 1 3.364-3.609 32.354 32.354 0 0 0 3.614-4.079 5.224 5.224 0 0 0 .023-4.326c-.682-1.322-3.433-3.609-6.024-5.043-2.046-1.1-4.023-2.6-10.752-8.114l-.75-.628.682-1.367a17.889 17.889 0 0 1 2.182-3.026c3.546-4.034 4.024-4.8 8.615-14.143a18.309 18.309 0 0 1 1.932-3.138c.75-.829 1-.964 1.8-.964 1.591 0 2.569 1.367 3.705 5.222a33.53 33.53 0 0 0 1.159 3.34c.887 1.86 3.592 3.765 6.319 4.46 2.364.583 4.592.179 8.752-1.591a35.051 35.051 0 0 1 6.82-2.376c.75-.157 1.478-.291 1.637-.336.409-.112.7-1.457.5-2.219a2.544 2.544 0 0 0-1.819-1.681 3.293 3.293 0 0 0-1.3.56 13.694 13.694 0 0 1-4.592 1.591l-1.114.134.591-1.86c.8-2.578 1.25-3.384 2.319-4.079 1.023-.672 1.3-1.322.955-2.219a2.1 2.1 0 0 0-2.3-1.255l-.955.067-.409 1.614a15.679 15.679 0 0 1-.909 2.555c-.568 1.1-2.637 3.34-3.091 3.34-.523 0-.614-1.479-.2-3.183l.409-1.591-.523-.426a2.671 2.671 0 0 0-2.591-.112c-.341.247-.364.471-.159 2.286a12.051 12.051 0 0 1 .068 2.8l-.182.784-1.364-.045c-4.251-.112-7.365-4.281-7.956-10.669l-.136-1.636 1.546-1.21a44.292 44.292 0 0 0 8.729-9.19c.864-1.345.932-1.547.864-2.645-.182-2.062-1.228-2.779-4.887-3.317-3.114-.448-3.637-.672-5.365-2.286s-2.114-1.838-3.433-1.838c-2.114 0-3.319.941-4.683 3.721-1.046 2.129-1.659 2.712-5.137 4.774a16.7 16.7 0 0 0-6.91 7.24l-.977 1.838-1.068-1.143c-1-1.076-1.569-2.2-1.25-2.488a1.6 1.6 0 0 1 .864.134c1.523.538 2.41.157 2-.874a3.287 3.287 0 0 0-1.841-1.659c-2.387-1.166-2.773-2.488-2.091-6.993.455-3 .455-4.147-.023-4.729-.364-.448-1.659-.314-2.3.224l-.591.516.591 1.681c.477 1.345.523 1.771.318 2.219-.136.314-.341.448-.455.336a50.276 50.276 0 0 1-2.387-5.962 10.549 10.549 0 0 1-.341-2.421c0-1.031-.091-1.367-.523-1.748a2.24 2.24 0 0 0-2.716-.043Zm22.69 84.164c.773.74.7.964-.25 1.143-.864.157-2.591-.224-2.591-.583 0-.426 1.023-1.121 1.637-1.121a1.823 1.823 0 0 1 1.204.561Z"/></g></g></g></g></g></g></g></svg>