<svg xmlns="http://www.w3.org/2000/svg" width="584" height="128"><g data-name="Grupo 51"><g data-name="Grupo 50"><path data-name="Trazado 42" d="M0 0h584v128H0Z" fill="#007acc"/><text transform="translate(128 91)" fill="#fff" font-size="77" font-family="SegoeUI-Bold, Segoe UI" font-weight="700"><tspan x="0" y="0">TYPESCRIPT</tspan></text><path data-name="Trazado 24" d="M16 64v48h96V16H16Z" fill="#fff"/><path data-name="Trazado 25" d="m36.709 62.164-.032 4.109h13.057v37.109h9.24V66.274h13.06v-4.03a39.49 39.49 0 0 0-.111-4.141c-.048-.063-8-.1-17.631-.08l-17.535.048Z" fill="#007acc"/><path data-name="Trazado 26" d="M92.625 57.954a12.488 12.488 0 0 1 6.275 3.615 16.527 16.527 0 0 1 2.4 3.217c.032.127-4.332 3.058-6.976 4.7-.1.063-.478-.35-.908-.988a5.687 5.687 0 0 0-4.714-2.835c-3.042-.207-5 1.386-4.985 4.045a3.677 3.677 0 0 0 .43 1.879c.669 1.386 1.911 2.214 5.813 3.9 7.183 3.09 10.256 5.128 12.168 8.027a14.559 14.559 0 0 1 1.162 12.232c-1.592 4.173-5.542 7.007-11.1 7.947a30.747 30.747 0 0 1-7.644-.08 18.435 18.435 0 0 1-10.209-5.319 17.724 17.724 0 0 1-2.612-3.87 7.476 7.476 0 0 1 .923-.589 852.98 852.98 0 0 0 3.727-2.15l2.883-1.672.605.892a13.469 13.469 0 0 0 3.806 3.647c3.2 1.688 7.6 1.449 9.763-.494a3.693 3.693 0 0 0 1.306-3.01 3.676 3.676 0 0 0-.749-2.548c-.78-1.115-2.373-2.055-6.9-4.013-5.176-2.23-7.406-3.615-9.444-5.813a13.23 13.23 0 0 1-2.755-5.017 20.093 20.093 0 0 1-.175-6.4c1.067-5 4.842-8.489 10.288-9.524a25.423 25.423 0 0 1 7.622.221Z" fill="#007acc"/></g></g></svg>