<svg xmlns="http://www.w3.org/2000/svg" width="282" height="128"><g data-name="Grupo 17"><path data-name="Rectángulo 7" fill="#007acc" d="M0 0h282v128H0z"/><text transform="translate(128 91)" fill="#fff" font-size="77" font-family="SegoeUI-Bold, Segoe UI" font-weight="700"><tspan x="0" y="0">VSC</tspan></text><g fill="#fff"><path data-name="Trazado 31" d="m108.6 26.159-19.763-9.561a5.955 5.955 0 0 0-6.819 1.164L17.3 77.047a4.03 4.03 0 0 0 0 5.941l5.286 4.828a3.983 3.983 0 0 0 5.105.228l77.931-59.4A3.969 3.969 0 0 1 112 31.818v-.23a6.028 6.028 0 0 0-3.4-5.429Z"/><path data-name="Trazado 32" d="m108.6 101.835-19.768 9.564a5.955 5.955 0 0 1-6.819-1.164L17.3 50.946a4.03 4.03 0 0 1 0-5.94l5.295-4.831a3.983 3.983 0 0 1 5.105-.228l77.931 59.4A3.969 3.969 0 0 0 112 96.175v.231a6.029 6.029 0 0 1-3.4 5.429Z"/><path data-name="Trazado 33" d="M88.573 111.405a6.044 6.044 0 0 1-6.881-1.166 3.545 3.545 0 0 0 6.048-2.5V20.265a3.544 3.544 0 0 0-6.048-2.5 6.044 6.044 0 0 1 6.881-1.166l19.936 9.56a6.029 6.029 0 0 1 3.427 5.435v64.817a6.029 6.029 0 0 1-3.427 5.435Z"/></g></g></svg>